<?xml version="1.0"?>
<svg xmlns="http://www.w3.org/2000/svg" viewBox="0 0 32 32">
    <path style="text-indent:0;text-align:start;line-height:normal;text-transform:none;block-progression:tb;-inkscape-font-specification:Sans" d="M 7 5 L 7 6 L 7 14 L 7 15 L 8 15 L 23 15 L 24 15 L 24 14 L 24 6 L 24 5 L 23 5 L 8 5 L 7 5 z M 9 7 L 22 7 L 22 13 L 9 13 L 9 7 z M 5.75 16 L 5.5 16.125 C 5.5 16.125 4.7618295 16.572706 4.15625 17.5 C 3.5506705 18.427294 3 19.890457 3 22 C 3 24.109543 3.5506705 25.572706 4.15625 26.5 C 4.7618295 27.427294 5.5 27.875 5.5 27.875 L 5.75 28 L 6 28 L 25 28 L 26 28 L 26 27 L 26 25.8125 C 27.710579 25.359033 29 23.846606 29 22 C 29 20.153394 27.710579 18.640967 26 18.1875 L 26 17 L 26 16 L 25 16 L 6 16 L 5.75 16 z M 6.375 18 L 24 18 L 24 19 L 24 20 L 25 20 C 26.116666 20 27 20.883334 27 22 C 27 23.116666 26.116666 24 25 24 L 24 24 L 24 25 L 24 26 L 6.375 26 C 6.3015005 25.955001 6.1666056 25.900623 5.84375 25.40625 C 5.4493295 24.802294 5 23.765457 5 22 C 5 20.234543 5.4493295 19.197706 5.84375 18.59375 C 6.1666056 18.099377 6.3015005 18.044999 6.375 18 z M 9 19 L 9 21 L 7 21 L 7 23 L 9 23 L 9 25 L 11 25 L 11 23 L 13 23 L 13 21 L 11 21 L 11 19 L 9 19 z M 25 21 C 24.447715 21 24 21.447715 24 22 C 24 22.552285 24.447715 23 25 23 C 25.552285 23 26 22.552285 26 22 C 26 21.447715 25.552285 21 25 21 z" overflow="visible" font-family="Sans"/>
</svg>
